<mxfile host="app.diagrams.net" modified="2021-10-19T05:31:00.988Z" agent="5.0 (Macintosh; Intel Mac OS X 10_15_7) AppleWebKit/537.36 (KHTML, like Gecko) Chrome/94.0.4606.81 Safari/537.36" etag="d5P85Hc3Ql1JsxYCs5oY" version="15.5.0" type="github">
  <diagram id="qzNjBNDZh3tMxg9USTBX" name="Page-1">
    <mxGraphModel dx="1069" dy="653" grid="1" gridSize="10" guides="1" tooltips="1" connect="1" arrows="1" fold="1" page="1" pageScale="1" pageWidth="827" pageHeight="1169" math="0" shadow="0">
      <root>
        <mxCell id="0" />
        <mxCell id="1" parent="0" />
        <mxCell id="v7YiWmHFAgEFXaee1daZ-1" value="" style="line;strokeWidth=1;direction=south;html=1;dashed=1;dashPattern=20 20;" vertex="1" parent="1">
          <mxGeometry x="300" y="40" width="10" height="360" as="geometry" />
        </mxCell>
        <mxCell id="v7YiWmHFAgEFXaee1daZ-2" value="部门负责人" style="text;align=right;" vertex="1" parent="1">
          <mxGeometry x="190" y="40" width="60" height="20" as="geometry" />
        </mxCell>
        <mxCell id="v7YiWmHFAgEFXaee1daZ-3" value="财务人员" style="text;align=left;" vertex="1" parent="1">
          <mxGeometry x="500" y="40" width="60" height="20" as="geometry" />
        </mxCell>
        <mxCell id="v7YiWmHFAgEFXaee1daZ-5" value="" style="line;strokeWidth=1;direction=south;html=1;dashed=1;dashPattern=20 20;" vertex="1" parent="1">
          <mxGeometry x="450" y="40" width="10" height="360" as="geometry" />
        </mxCell>
        <mxCell id="v7YiWmHFAgEFXaee1daZ-6" value="项目经理" style="text;align=left;" vertex="1" parent="1">
          <mxGeometry x="360" y="40" width="60" height="20" as="geometry" />
        </mxCell>
        <mxCell id="v7YiWmHFAgEFXaee1daZ-10" value="OA" style="text;align=right;" vertex="1" parent="1">
          <mxGeometry x="60" y="90" width="30" height="20" as="geometry" />
        </mxCell>
        <mxCell id="v7YiWmHFAgEFXaee1daZ-11" value="绩效系统" style="text;align=right;" vertex="1" parent="1">
          <mxGeometry x="60" y="200" width="30" height="20" as="geometry" />
        </mxCell>
      </root>
    </mxGraphModel>
  </diagram>
</mxfile>
